<?xml version="1.0" encoding="UTF-8" standalone="no" ?>
<!DOCTYPE svg PUBLIC "-//W3C//DTD SVG 1.1//EN" "http://www.w3.org/Graphics/SVG/1.1/DTD/svg11.dtd">
<svg xmlns="http://www.w3.org/2000/svg" xmlns:xlink="http://www.w3.org/1999/xlink" version="1.1" width="40" height="31" viewBox="0 0 40 31" xml:space="preserve">
<desc>Created with Fabric.js 4.6.0</desc>
<defs>
</defs>
<g transform="matrix(1 0 0 1 31 15.48)" id="leYoskrGtc-I4B-OSFJug"  >
<path style="stroke: none; stroke-width: 1; stroke-dasharray: none; stroke-linecap: butt; stroke-dashoffset: 0; stroke-linejoin: miter; stroke-miterlimit: 4; fill: rgb(255,255,255); fill-rule: nonzero; opacity: 1;" vector-effect="non-scaling-stroke"  transform=" translate(0, 0)" d="M 3.2053 0 L 6.670299999999999 -3.465 C 6.8900999999999994 -3.6848 6.999999999999999 -3.9526 6.999999999999999 -4.2663 C 6.999999999999999 -4.5801 6.8900999999999994 -4.8478 6.670299999999999 -5.06766 L 5.067699999999999 -6.67028 C 4.847799999999999 -6.89009 4.5801 -7 4.266299999999999 -7 C 3.9525999999999994 -7 3.684799999999999 -6.89009 3.4649999999999994 -6.67028 L -4.440892098500626e-16 -3.2053 L -3.4650000000000003 -6.67028 C -3.6848 -6.89009 -3.9526000000000003 -7 -4.2663 -7 C -4.5801 -7 -4.8478 -6.89009 -5.0677 -6.67028 L -6.6703 -5.06766 C -6.8901 -4.8478 -7 -4.5801 -7 -4.2663 C -7 -3.9526000000000003 -6.8901 -3.6848 -6.6703 -3.4650000000000003 L -3.2053000000000003 -4.440892098500626e-16 L -6.6703 3.4649999999999994 C -6.8901 3.684799999999999 -7 3.9525999999999994 -7 4.266299999999999 C -7 4.580099999999999 -6.8901 4.847799999999999 -6.6703 5.067699999999999 L -5.0677 6.670299999999999 C -4.8478 6.8900999999999994 -4.580100000000001 6.999999999999999 -4.2663 6.999999999999999 C -3.9526000000000003 6.999999999999999 -3.6848 6.8900999999999994 -3.4650000000000003 6.670299999999999 L -4.440892098500626e-16 3.2052999999999994 L 3.4649999999999994 6.670299999999999 C 3.684799999999999 6.8900999999999994 3.9515999999999996 6.999999999999999 4.266299999999999 6.999999999999999 C 4.581099999999999 6.999999999999999 4.847799999999999 6.8900999999999994 5.067699999999999 6.670299999999999 L 6.670299999999999 5.067699999999999 C 6.8900999999999994 4.847799999999999 6.999999999999999 4.5801 6.999999999999999 4.266299999999999 C 6.999999999999999 3.9525999999999994 6.8900999999999994 3.684799999999999 6.670299999999999 3.4649999999999994 z" stroke-linecap="round" />
</g>
<g transform="matrix(1 0 0 1 12 15.48)" id="IheqsYM5crmVy6nUIj3EX"  >
<path style="stroke: none; stroke-width: 1; stroke-dasharray: none; stroke-linecap: butt; stroke-dashoffset: 0; stroke-linejoin: miter; stroke-miterlimit: 4; fill: rgb(255,255,255); fill-rule: nonzero; opacity: 1;" vector-effect="non-scaling-stroke"  transform=" translate(0, 0)" d="M 8.3326 -15 C 7.8816 -15 7.490499999999999 -14.84363 7.160399999999999 -14.53088 L -1.510720000000001 -6.31574 L -8.332630000000002 -6.31574 C -8.784690000000001 -6.31574 -9.174730000000002 -6.1593599999999995 -9.504840000000002 -5.84661 C -9.834950000000001 -5.53386 -10.000000000000002 -5.16335 -10.000000000000002 -4.7361 L -10.000000000000002 4.7361 C -10.000000000000002 5.1633000000000004 -9.834940000000001 5.5339 -9.504840000000002 5.8466000000000005 C -9.174730000000002 6.159400000000001 -8.783640000000002 6.3157000000000005 -8.332630000000002 6.3157000000000005 L -1.5107200000000018 6.3157000000000005 L 7.160399999999998 14.530899999999999 C 7.490499999999998 14.843599999999999 7.8805999999999985 14.999999999999998 8.332599999999998 14.999999999999998 C 8.784699999999997 14.999999999999998 9.174699999999998 14.843599999999999 9.504799999999998 14.530899999999999 C 9.834899999999998 14.2181 9.999999999999998 13.8486 9.999999999999998 13.4203 L 9.999999999999998 -13.420320000000002 C 9.999999999999998 -13.847610000000001 9.834899999999998 -14.218130000000002 9.505899999999999 -14.530880000000002 C 9.176799999999998 -14.843630000000001 8.785699999999999 -15.000000000000002 8.333699999999999 -15.000000000000002 z" stroke-linecap="round" />
</g>
</svg>