<?xml version="1.0" encoding="UTF-8" standalone="no" ?>
<!DOCTYPE svg PUBLIC "-//W3C//DTD SVG 1.1//EN" "http://www.w3.org/Graphics/SVG/1.1/DTD/svg11.dtd">
<svg xmlns="http://www.w3.org/2000/svg" xmlns:xlink="http://www.w3.org/1999/xlink" version="1.1" width="25" height="25" viewBox="0 0 25 25" xml:space="preserve">
<desc>Created with Fabric.js 4.6.0</desc>
<defs>
</defs>
<g transform="matrix(1 0 0 1 12.5 12.5)" id="rfMNmapqtmI34Z6sQdB2b"  >
<path style="stroke: none; stroke-width: 1; stroke-dasharray: none; stroke-linecap: butt; stroke-dashoffset: 0; stroke-linejoin: round; stroke-miterlimit: 1.41; fill: none; fill-rule: evenodd; opacity: 1;" vector-effect="non-scaling-stroke"  transform=" translate(-12, -12)" d="M 0 0 L 24 0 L 24 24 L 0 24 z" stroke-linecap="round" />
</g>
<g transform="matrix(1.52 0 0 1.56 12.5 12.5)" id="D9hFFo9FLhp4QZyd7-BDm"  >
<path style="stroke: none; stroke-width: 0; stroke-dasharray: none; stroke-linecap: butt; stroke-dashoffset: 0; stroke-linejoin: round; stroke-miterlimit: 1.41; fill: rgb(255,255,255); fill-rule: nonzero; opacity: 1;" vector-effect="non-scaling-stroke"  transform=" translate(-12, -12)" d="M 7.714 16.286 L 19.714 16.286 L 19.714 18 L 7.713999999999999 18 L 7.713999999999999 16.286 z M 4.2860000000000005 16.286 L 6 16.286 L 6 18 L 4.286 18 L 4.286 16.286 z M 8.571000000000002 11.143 L 19.714000000000002 11.143 L 19.714000000000002 12.857000000000001 L 8.571 12.857000000000001 L 8.571 11.143 z M 7.714 6 L 19.714 6 L 19.714 7.714 L 7.713999999999999 7.714 L 7.713999999999999 6 z M 4.286 6 L 6 6 L 6 7.714 L 4.286 7.714 L 4.286 6 z M 4.286 10.286 L 6.857 12 L 4.286 13.714 L 4.286 10.286000000000001 z" stroke-linecap="round" />
</g>
</svg>