<?xml version="1.0" encoding="UTF-8" standalone="no" ?>
<!DOCTYPE svg PUBLIC "-//W3C//DTD SVG 1.1//EN" "http://www.w3.org/Graphics/SVG/1.1/DTD/svg11.dtd">
<svg xmlns="http://www.w3.org/2000/svg" xmlns:xlink="http://www.w3.org/1999/xlink" version="1.1" width="48" height="48" viewBox="0 0 48 48" xml:space="preserve">
<desc>Created with Fabric.js 4.6.0</desc>
<defs>
</defs>
<g transform="matrix(0.1 0 0 0.1 24.12 24.12)" id="k6qvk0IDeBt_1ahea0F8l"  >
<path style="stroke: none; stroke-width: 1; stroke-dasharray: none; stroke-linecap: butt; stroke-dashoffset: 0; stroke-linejoin: miter; stroke-miterlimit: 4; fill: rgb(255,252,252); fill-rule: nonzero; opacity: 1;" vector-effect="non-scaling-stroke"  transform=" translate(0, 0)" d="M 214.84858 -50.25 L 181.24858 -55.95 C 177.74858 -67.25 173.24858 -78.15 167.74858 -88.55000000000001 L 187.54858000000002 -116.25000000000001 C 195.94858000000002 -128.05 194.64858 -144.15 184.34858000000003 -154.35000000000002 L 154.54858000000002 -184.15000000000003 C 148.94858000000002 -189.75000000000003 141.54858000000002 -192.85000000000002 133.64858 -192.85000000000002 C 127.44858 -192.85000000000002 121.54858000000002 -190.95000000000002 116.54858000000002 -187.35000000000002 L 88.74858000000002 -167.55 C 77.94858000000002 -173.25 66.64858000000001 -177.95000000000002 54.94858000000002 -181.45000000000002 L 49.34858000000002 -214.65000000000003 C 46.94858000000002 -228.95000000000005 34.648580000000024 -239.35000000000002 20.14858000000002 -239.35000000000002 L -21.95141999999998 -239.35000000000002 C -36.451419999999985 -239.35000000000002 -48.75141999999998 -228.95000000000002 -51.15141999999998 -214.65000000000003 L -56.95141999999998 -180.65000000000003 C -68.15141999999997 -177.15000000000003 -79.05141999999998 -172.55000000000004 -89.45141999999998 -166.95000000000005 L -116.95141999999998 -186.75000000000006 C -121.95141999999998 -190.35000000000005 -127.95141999999998 -192.25000000000006 -134.15141999999997 -192.25000000000006 C -142.05141999999998 -192.25000000000006 -149.55141999999998 -189.15000000000006 -155.05141999999998 -183.55000000000007 L -184.95141999999998 -153.75000000000006 C -195.15141999999997 -143.55000000000007 -196.55141999999998 -127.45000000000006 -188.15141999999997 -115.65000000000006 L -168.15141999999997 -87.55000000000007 C -173.65141999999997 -77.05000000000007 -178.05141999999998 -66.15000000000006 -181.45141999999998 -54.850000000000065 L -214.65141999999997 -49.250000000000064 C -228.95141999999998 -46.850000000000065 -239.35141999999996 -34.55000000000007 -239.35141999999996 -20.050000000000065 L -239.35141999999996 22.049999999999937 C -239.35141999999996 36.54999999999994 -228.95141999999996 48.84999999999994 -214.65141999999997 51.249999999999936 L -180.65141999999997 57.04999999999993 C -177.15141999999997 68.24999999999993 -172.55141999999998 79.14999999999993 -166.95141999999998 89.54999999999993 L -186.65141999999997 116.94999999999993 C -195.05141999999998 128.74999999999994 -193.75141999999997 144.84999999999994 -183.45141999999998 155.04999999999993 L -153.65141999999997 184.84999999999994 C -148.05141999999998 190.44999999999993 -140.65141999999997 193.54999999999993 -132.75141999999997 193.54999999999993 C -126.55141999999996 193.54999999999993 -120.65141999999997 191.64999999999992 -115.65141999999997 188.04999999999993 L -87.55141999999998 168.04999999999993 C -77.45141999999998 173.34999999999994 -66.85141999999998 177.64999999999992 -55.95141999999998 181.04999999999993 L -50.351419999999976 214.64999999999992 C -47.95141999999998 228.94999999999993 -35.65141999999997 239.3499999999999 -21.151419999999977 239.3499999999999 L 21.048580000000026 239.3499999999999 C 35.54858000000003 239.3499999999999 47.84858000000003 228.9499999999999 50.248580000000025 214.64999999999992 L 55.94858000000003 181.04999999999993 C 67.24858000000003 177.54999999999993 78.14858000000002 173.04999999999993 88.54858000000003 167.54999999999993 L 116.24858000000003 187.34999999999994 C 121.24858000000003 190.94999999999993 127.24858000000003 192.84999999999994 133.44858000000002 192.84999999999994 L 133.44858000000002 192.84999999999994 C 141.34858000000003 192.84999999999994 148.74858000000003 189.74999999999994 154.34858000000003 184.14999999999995 L 184.14858000000004 154.34999999999994 C 194.34858000000003 144.14999999999995 195.74858000000003 128.04999999999993 187.34858000000003 116.24999999999994 L 167.54858000000002 88.44999999999995 C 173.04858000000002 77.94999999999995 177.64858 67.04999999999995 181.04858000000002 55.849999999999945 L 214.64858 50.24999999999994 C 228.94858000000002 47.849999999999945 239.34858 35.54999999999994 239.34858 21.049999999999944 L 239.34858 -21.050000000000058 C 239.54858 -35.550000000000054 229.14858 -47.85000000000006 214.84858 -50.25000000000006 z M 212.54858 21.05 C 212.54858 22.35 211.64857999999998 23.45 210.34858 23.650000000000002 L 168.34858 30.650000000000002 C 163.04858 31.55 158.84858 35.45 157.54858 40.550000000000004 C 153.74857999999998 55.25 147.94858 69.35000000000001 140.14857999999998 82.45 C 137.44858 87.05 137.64857999999998 92.75 140.74857999999998 97.15 L 165.44857999999996 131.95 C 166.14857999999995 132.95 166.04857999999996 134.45 165.14857999999995 135.35 L 135.34857999999994 165.15 C 134.64857999999995 165.85 133.94857999999994 165.95000000000002 133.44857999999994 165.95000000000002 C 132.84857999999994 165.95000000000002 132.34857999999994 165.75000000000003 131.94857999999994 165.45000000000002 L 97.24857999999993 140.75000000000003 C 92.94857999999994 137.65000000000003 87.14857999999994 137.45000000000002 82.54857999999993 140.15000000000003 C 69.44857999999994 147.95000000000005 55.34857999999993 153.75000000000003 40.64857999999993 157.55000000000004 C 35.44857999999993 158.85000000000005 31.54857999999993 163.15000000000003 30.748579999999933 168.35000000000005 L 23.64857999999993 210.35000000000005 C 23.448579999999932 211.65000000000006 22.34857999999993 212.55000000000004 21.04857999999993 212.55000000000004 L -21.05142000000007 212.55000000000004 C -22.351420000000072 212.55000000000004 -23.45142000000007 211.65000000000003 -23.651420000000073 210.35000000000005 L -30.651420000000073 168.35000000000005 C -31.55142000000007 163.05000000000004 -35.45142000000007 158.85000000000005 -40.55142000000007 157.55000000000004 C -54.851420000000076 153.85000000000005 -68.65142000000007 148.15000000000003 -81.55142000000006 140.75000000000003 C -83.65142000000006 139.55000000000004 -86.05142000000006 138.95000000000002 -88.35142000000006 138.95000000000002 C -91.05142000000006 138.95000000000002 -93.85142000000006 139.75000000000003 -96.15142000000006 141.45000000000002 L -131.15142000000006 166.35000000000002 C -131.65142000000006 166.65000000000003 -132.15142000000006 166.85000000000002 -132.65142000000006 166.85000000000002 C -133.05142000000006 166.85000000000002 -133.85142000000005 166.75000000000003 -134.55142000000006 166.05 L -164.35142000000008 136.25 C -165.25142000000008 135.35 -165.35142000000008 133.95 -164.6514200000001 132.85 L -140.0514200000001 98.35 C -136.9514200000001 93.94999999999999 -136.75142000000008 88.14999999999999 -139.4514200000001 83.55 C -147.2514200000001 70.55 -153.2514200000001 56.449999999999996 -157.0514200000001 41.75 C -158.4514200000001 36.65 -162.6514200000001 32.75 -167.8514200000001 31.85 L -210.1514200000001 24.650000000000002 C -211.4514200000001 24.450000000000003 -212.35142000000008 23.35 -212.35142000000008 22.05 L -212.35142000000008 -20.05 C -212.35142000000008 -21.35 -211.45142000000007 -22.45 -210.1514200000001 -22.650000000000002 L -168.4514200000001 -29.650000000000002 C -163.1514200000001 -30.55 -158.8514200000001 -34.45 -157.5514200000001 -39.650000000000006 C -153.8514200000001 -54.35000000000001 -148.1514200000001 -68.55000000000001 -140.4514200000001 -81.65 C -137.7514200000001 -86.25 -138.0514200000001 -91.95 -141.1514200000001 -96.25 L -166.0514200000001 -131.25 C -166.75142000000008 -132.25 -166.6514200000001 -133.75 -165.75142000000008 -134.65 L -135.95142000000007 -164.45000000000002 C -135.25142000000008 -165.15 -134.55142000000006 -165.25000000000003 -134.05142000000006 -165.25000000000003 C -133.45142000000007 -165.25000000000003 -132.95142000000007 -165.05000000000004 -132.55142000000006 -164.75000000000003 L -98.05142000000006 -140.15000000000003 C -93.65142000000006 -137.05000000000004 -87.85142000000006 -136.85000000000002 -83.25142000000007 -139.55000000000004 C -70.25142000000007 -147.35000000000005 -56.151420000000066 -153.35000000000005 -41.45142000000007 -157.15000000000003 C -36.35142000000007 -158.55000000000004 -32.45142000000007 -162.75000000000003 -31.55142000000007 -167.95000000000005 L -24.351420000000072 -210.25000000000006 C -24.151420000000073 -211.55000000000007 -23.05142000000007 -212.45000000000005 -21.75142000000007 -212.45000000000005 L 20.34857999999993 -212.45000000000005 C 21.64857999999993 -212.45000000000005 22.74857999999993 -211.55000000000004 22.948579999999932 -210.25000000000006 L 29.948579999999932 -168.55000000000007 C 30.84857999999993 -163.25000000000006 34.74857999999993 -158.95000000000007 39.948579999999936 -157.65000000000006 C 55.04857999999994 -153.85000000000005 69.44857999999994 -147.95000000000007 82.84857999999994 -140.05000000000007 C 87.44857999999994 -137.35000000000008 93.14857999999994 -137.55000000000007 97.54857999999994 -140.65000000000006 L 132.04857999999996 -165.45000000000007 C 132.54857999999996 -165.75000000000009 133.04857999999996 -165.95000000000007 133.54857999999996 -165.95000000000007 C 133.94857999999996 -165.95000000000007 134.74857999999995 -165.85000000000008 135.44857999999996 -165.15000000000006 L 165.24857999999998 -135.35000000000005 C 166.14857999999998 -134.45000000000005 166.24857999999998 -133.05000000000004 165.54858 -131.95000000000005 L 140.84858 -97.25000000000004 C 137.74858 -92.95000000000005 137.54858 -87.15000000000005 140.24858 -82.55000000000004 C 148.04858000000002 -69.45000000000005 153.84858 -55.35000000000004 157.64858 -40.65000000000004 C 158.94858000000002 -35.45000000000004 163.24858 -31.55000000000004 168.44858000000002 -30.750000000000043 L 210.44858000000002 -23.65000000000004 C 211.74858000000003 -23.450000000000042 212.64858 -22.35000000000004 212.64858 -21.05000000000004 L 212.64858 21.04999999999996 L 212.54858000000002 21.04999999999996 z" stroke-linecap="round" />
</g>
<g transform="matrix(0.1 0 0 0.1 24 23.54)" id="vhe78IlR2XHPDZHiVF8i1"  >
<path style="stroke: none; stroke-width: 1; stroke-dasharray: none; stroke-linecap: butt; stroke-dashoffset: 0; stroke-linejoin: miter; stroke-miterlimit: 4; fill: rgb(255,255,255); fill-rule: nonzero; opacity: 1;" vector-effect="non-scaling-stroke"  transform=" translate(-239.4, -239.3)" d="M 239.4 136.001 C 182.4 136.001 136.10000000000002 182.301 136.10000000000002 239.301 C 136.10000000000002 296.301 182.40000000000003 342.601 239.40000000000003 342.601 C 296.40000000000003 342.601 342.70000000000005 296.301 342.70000000000005 239.301 C 342.70000000000005 182.301 296.4 136.001 239.4 136.001 z M 239.4 315.601 C 197.3 315.601 163.10000000000002 281.401 163.10000000000002 239.301 C 163.10000000000002 197.20099999999996 197.3 163.00099999999998 239.40000000000003 163.00099999999998 C 281.50000000000006 163.00099999999998 315.70000000000005 197.20099999999996 315.70000000000005 239.301 C 315.70000000000005 281.401 281.5 315.601 239.4 315.601 z" stroke-linecap="round" />
</g>
</svg>